<svg width="21" height="18" viewBox="0 0 21 18" fill="none" xmlns="http://www.w3.org/2000/svg">
<path d="M0.512878 1.07227C0.512878 1.5293 0.899597 1.91602 1.33905 1.91602H4.09003L5.45233 11.2148C5.64569 12.542 6.34882 13.3506 7.69354 13.3506H17.924C18.3371 13.3506 18.715 13.0254 18.715 12.5596C18.715 12.1025 18.3371 11.7773 17.924 11.7773H7.89569C7.47382 11.7773 7.21014 11.4873 7.14862 11.0391L7.008 10.125H17.9943C19.3391 10.125 20.051 9.30762 20.2443 7.97168L20.9035 3.56836C20.9211 3.4541 20.9387 3.30469 20.9387 3.20801C20.9387 2.68945 20.5783 2.33789 19.9719 2.33789H5.89178L5.75116 1.38867C5.6369 0.624023 5.32928 0.237305 4.3537 0.237305H1.33905C0.899597 0.237305 0.512878 0.624023 0.512878 1.07227ZM6.87616 16.2246C6.87616 17.0771 7.56171 17.7627 8.41425 17.7627C9.26678 17.7627 9.95233 17.0771 9.95233 16.2246C9.95233 15.3721 9.26678 14.6865 8.41425 14.6865C7.56171 14.6865 6.87616 15.3721 6.87616 16.2246ZM14.9885 16.2246C14.9885 17.0771 15.6828 17.7627 16.5353 17.7627C17.3879 17.7627 18.0646 17.0771 18.0646 16.2246C18.0646 15.3721 17.3879 14.6865 16.5353 14.6865C15.6828 14.6865 14.9885 15.3721 14.9885 16.2246Z" fill="white" fill-opacity="0.6"/>
</svg>
