<svg width="20" height="18" viewBox="0 0 20 18" fill="none" xmlns="http://www.w3.org/2000/svg">
<path d="M7.77948 15.0996L11.9719 17.4375C12.1828 17.5518 12.3586 17.6396 12.5783 17.6924V3.09375L8.50018 0.632812C8.23651 0.474609 7.99042 0.360352 7.77948 0.307617V15.0996ZM0.985535 16.2773C0.985535 17.042 1.46893 17.4639 2.17206 17.4639C2.42694 17.4639 2.69061 17.3848 2.98944 17.2266L6.48749 15.3281V0.404297C6.29413 0.483398 6.06561 0.580078 5.82831 0.720703L1.85565 2.97949C1.258 3.31348 0.985535 3.78809 0.985535 4.45605V16.2773ZM13.8615 17.6484C13.967 17.6221 14.0724 17.5781 14.1691 17.5078L18.6164 14.9941C19.2316 14.6514 19.5129 14.1855 19.5129 13.5176V1.75781C19.5129 0.958008 19.0207 0.5625 18.2736 0.5625C18.0012 0.5625 17.7111 0.641602 17.4035 0.808594L13.8615 2.77734V17.6484Z" fill="white" fill-opacity="0.6"/>
</svg>
