<svg width="25" height="24" viewBox="0 0 25 24" fill="none" xmlns="http://www.w3.org/2000/svg">
<path d="M20.1719 5C19.1119 3.93721 17.7067 3.28854 16.2102 3.17117C14.7138 3.0538 13.2247 3.47546 12.0119 4.36C10.7395 3.41364 9.15588 2.98451 7.57981 3.15903C6.00374 3.33356 4.55233 4.09878 3.51786 5.30058C2.48339 6.50239 1.94271 8.05152 2.00469 9.63601C2.06667 11.2205 2.72671 12.7227 3.85189 13.84L10.0619 20.06C10.5819 20.5718 11.2823 20.8586 12.0119 20.8586C12.7415 20.8586 13.4419 20.5718 13.9619 20.06L20.1719 13.84C21.3395 12.6653 21.9948 11.0763 21.9948 9.42C21.9948 7.76372 21.3395 6.17473 20.1719 5ZM18.7619 12.46L12.5519 18.67C12.4812 18.7414 12.3971 18.798 12.3044 18.8366C12.2117 18.8753 12.1123 18.8952 12.0119 18.8952C11.9115 18.8952 11.812 18.8753 11.7193 18.8366C11.6267 18.798 11.5426 18.7414 11.4719 18.67L5.26189 12.43C4.47765 11.6283 4.0385 10.5515 4.0385 9.43C4.0385 8.30853 4.47765 7.23165 5.26189 6.43C6.06104 5.64099 7.13886 5.19857 8.26189 5.19857C9.38491 5.19857 10.4627 5.64099 11.2619 6.43C11.3549 6.52373 11.4655 6.59812 11.5873 6.64889C11.7092 6.69966 11.8399 6.7258 11.9719 6.7258C12.1039 6.7258 12.2346 6.69966 12.3565 6.64889C12.4783 6.59812 12.5889 6.52373 12.6819 6.43C13.481 5.64099 14.5589 5.19857 15.6819 5.19857C16.8049 5.19857 17.8827 5.64099 18.6819 6.43C19.4769 7.22115 19.9305 8.29219 19.9454 9.41368C19.9604 10.5352 19.5355 11.6179 18.7619 12.43V12.46Z" fill="white"/>
</svg>
